<?xml version="1.0" encoding="utf-8"?>
<!-- Generator: Adobe Illustrator 27.5.0, SVG Export Plug-In . SVG Version: 6.00 Build 0)  -->
<svg version="1.1" id="Capa_1" xmlns="http://www.w3.org/2000/svg" xmlns:xlink="http://www.w3.org/1999/xlink" x="0px" y="0px"
	 viewBox="0 0 425.197 425.197" style="enable-background:new 0 0 425.197 425.197;" xml:space="preserve">
<rect style="opacity:0.15;fill:#89AAD6;" width="425.197" height="425.197"/>
<rect x="-0.487" y="371.978" style="fill:#89AAD6;" width="426.172" height="53.707"/>
<g>
	<g>
		<g>
			<path style="fill:#C4D987;" d="M200.226,313.394c1.447-2.03,2.306-4.514,2.306-7.197c0-6.845-5.548-12.393-12.388-12.393
				c-0.255,0-0.504,0.012-0.752,0.026c1.713-2.127,2.74-4.826,2.74-7.77c0-6.841-5.546-12.39-12.391-12.39
				c-6.84,0-12.387,5.549-12.387,12.39c0,2.934,1.017,5.629,2.721,7.748c-6.772,0.079-12.236,5.595-12.236,12.389
				c0,2.587,0.793,4.989,2.152,6.976c-6.598,1.82-11.442,7.862-11.442,15.039c0,8.61,6.981,15.598,15.597,15.598
				c4.553,0,8.652-1.953,11.499-5.065c3.261,4.473,8.538,7.388,14.499,7.388c9.896,0,17.922-8.025,17.922-17.92
				C208.065,322.05,204.954,316.618,200.226,313.394z"/>
			<path style="fill:#1D2953;" d="M190.878,309.578c-0.289-0.26-0.734-0.235-0.992,0.056c-6.127,6.855-9.121,10.292-10.582,12.063
				V301.41c0-0.389-0.316-0.702-0.705-0.702s-0.702,0.314-0.702,0.702v29.592c-3.047-4.834-6.357-9.243-6.393-9.297
				c-0.233-0.31-0.675-0.373-0.987-0.138c-0.306,0.232-0.373,0.673-0.137,0.983c0.04,0.053,4.158,5.54,7.402,10.949
				c0.031,0.05,0.07,0.102,0.114,0.143v40.714c0,0.387,0.313,0.705,0.702,0.705s0.705-0.318,0.705-0.705v-50.441
				c0.83-1.165,7.48-8.699,11.629-13.345C191.191,310.282,191.169,309.838,190.878,309.578z"/>
		</g>
		<g>
			<path style="fill:#C4D987;" d="M110.662,313.394c1.45-2.03,2.308-4.514,2.308-7.197c0-6.845-5.547-12.393-12.385-12.393
				c-0.256,0-0.51,0.012-0.752,0.026c1.71-2.127,2.739-4.826,2.739-7.77c0-6.841-5.548-12.39-12.392-12.39
				c-6.841,0-12.39,5.549-12.39,12.39c0,2.934,1.021,5.629,2.725,7.748c-6.773,0.079-12.237,5.595-12.237,12.389
				c0,2.587,0.794,4.989,2.151,6.976c-6.596,1.82-11.443,7.862-11.443,15.039c0,8.61,6.984,15.598,15.601,15.598
				c4.551,0,8.65-1.953,11.497-5.065c3.263,4.473,8.535,7.388,14.502,7.388c9.896,0,17.918-8.025,17.918-17.92
				C118.503,322.05,115.392,316.618,110.662,313.394z"/>
			<path style="fill:#1D2953;" d="M101.315,309.578c-0.289-0.26-0.73-0.235-0.99,0.056c-6.129,6.855-9.122,10.292-10.584,12.063
				V301.41c0-0.389-0.315-0.702-0.703-0.702c-0.389,0-0.703,0.314-0.703,0.702v29.592c-3.045-4.834-6.355-9.243-6.391-9.297
				c-0.235-0.31-0.678-0.373-0.986-0.138c-0.309,0.232-0.373,0.673-0.141,0.983c0.041,0.053,4.16,5.54,7.402,10.949
				c0.036,0.05,0.072,0.102,0.115,0.143v40.714c0,0.387,0.314,0.705,0.703,0.705c0.389,0,0.703-0.318,0.703-0.705v-50.441
				c0.83-1.165,7.48-8.699,11.632-13.345C101.63,310.282,101.606,309.838,101.315,309.578z"/>
		</g>
		<g>
			<path style="fill:#A2C655;" d="M248.905,336.91c0.898-1.257,1.428-2.791,1.428-4.453c0-4.233-3.432-7.666-7.664-7.666
				c-0.156,0-0.311,0.007-0.466,0.016c1.06-1.316,1.698-2.986,1.698-4.807c0-4.231-3.434-7.666-7.668-7.666
				c-4.234,0-7.664,3.435-7.664,7.666c0,1.814,0.631,3.48,1.684,4.793c-4.191,0.049-7.57,3.461-7.57,7.664
				c0,1.599,0.491,3.085,1.332,4.318c-4.082,1.125-7.078,4.86-7.078,9.302c0,5.328,4.32,9.649,9.648,9.649
				c2.815,0,5.352-1.207,7.115-3.135c2.017,2.769,5.28,4.569,8.97,4.569c6.123,0,11.087-4.963,11.087-11.084
				C253.756,342.265,251.833,338.905,248.905,336.91z"/>
			<path style="fill:#1D2953;" d="M243.124,334.55c-0.178-0.161-0.455-0.145-0.613,0.034c-3.792,4.242-5.645,6.368-6.55,7.461
				v-12.548c0-0.243-0.194-0.435-0.436-0.435c-0.239,0-0.433,0.192-0.433,0.435v18.308c-1.885-2.992-3.933-5.721-3.957-5.752
				c-0.145-0.192-0.415-0.232-0.605-0.087c-0.193,0.145-0.234,0.416-0.09,0.609c0.027,0.034,2.574,3.428,4.582,6.772
				c0.019,0.032,0.039,0.064,0.07,0.09v25.186c0,0.244,0.193,0.439,0.433,0.439c0.241,0,0.436-0.194,0.436-0.439v-31.202
				c0.513-0.723,4.626-5.383,7.196-8.259C243.319,334.986,243.302,334.709,243.124,334.55z"/>
		</g>
		<g>
			<path style="fill:#A2C655;" d="M47.112,325.626c1.162-1.626,1.851-3.616,1.851-5.766c0-5.486-4.447-9.935-9.932-9.935
				c-0.203,0-0.403,0.007-0.602,0.019c1.373-1.706,2.198-3.868,2.198-6.229c0-5.484-4.448-9.933-9.935-9.933
				s-9.931,4.448-9.931,9.933c0,2.352,0.817,4.511,2.182,6.212c-5.431,0.065-9.811,4.484-9.811,9.933
				c0,2.068,0.638,3.999,1.728,5.59c-5.289,1.46-9.173,6.302-9.173,12.055c0,6.903,5.599,12.503,12.505,12.503
				c3.645,0,6.933-1.565,9.217-4.061c2.613,3.589,6.844,5.922,11.621,5.922c7.936,0,14.365-6.432,14.365-14.364
				C53.397,332.565,50.907,328.213,47.112,325.626z"/>
			<path style="fill:#1D2953;" d="M39.622,322.57c-0.233-0.208-0.59-0.188-0.795,0.045c-4.913,5.494-7.311,8.249-8.485,9.666v-16.26
				c0-0.311-0.253-0.564-0.564-0.564c-0.31,0-0.563,0.253-0.563,0.564v23.722c-2.443-3.876-5.098-7.411-5.127-7.452
				c-0.188-0.248-0.537-0.299-0.788-0.111c-0.247,0.189-0.3,0.543-0.112,0.788c0.036,0.043,3.334,4.44,5.936,8.776
				c0.023,0.044,0.056,0.082,0.092,0.118v32.633c0,0.312,0.253,0.567,0.563,0.567c0.311,0,0.564-0.255,0.564-0.567v-40.434
				c0.665-0.932,5.997-6.973,9.327-10.695C39.873,323.133,39.851,322.777,39.622,322.57z"/>
		</g>
		<g>
			<path style="fill:#A2C655;" d="M143.698,336.91c0.898-1.257,1.428-2.791,1.428-4.453c0-4.233-3.433-7.666-7.664-7.666
				c-0.158,0-0.313,0.007-0.464,0.016c1.059-1.316,1.694-2.986,1.694-4.807c0-4.231-3.433-7.666-7.666-7.666
				c-4.233,0-7.664,3.435-7.664,7.666c0,1.814,0.631,3.48,1.684,4.793c-4.189,0.049-7.57,3.461-7.57,7.664
				c0,1.599,0.491,3.085,1.332,4.318c-4.081,1.125-7.08,4.86-7.08,9.302c0,5.328,4.322,9.649,9.651,9.649
				c2.815,0,5.351-1.207,7.112-3.135c2.017,2.769,5.28,4.569,8.971,4.569c6.122,0,11.087-4.963,11.087-11.084
				C148.549,342.265,146.624,338.905,143.698,336.91z"/>
			<path style="fill:#1D2953;" d="M137.917,334.55c-0.181-0.161-0.455-0.145-0.616,0.034c-3.789,4.242-5.642,6.368-6.547,7.461
				v-12.548c0-0.243-0.194-0.435-0.436-0.435c-0.237,0-0.434,0.192-0.434,0.435v18.308c-1.885-2.992-3.932-5.721-3.956-5.752
				c-0.146-0.192-0.416-0.232-0.606-0.087c-0.195,0.145-0.234,0.416-0.09,0.609c0.027,0.034,2.574,3.428,4.579,6.772
				c0.02,0.032,0.046,0.064,0.072,0.09v25.186c0,0.244,0.196,0.439,0.434,0.439c0.241,0,0.436-0.194,0.436-0.439v-31.202
				c0.514-0.723,4.628-5.383,7.197-8.259C138.11,334.986,138.096,334.709,137.917,334.55z"/>
		</g>
	</g>
	<g>
		<g>
			<path style="fill:#C4D987;" d="M376.976,313.394c1.448-2.03,2.307-4.514,2.307-7.197c0-6.845-5.546-12.393-12.387-12.393
				c-0.256,0-0.505,0.012-0.751,0.026c1.712-2.127,2.741-4.826,2.741-7.77c0-6.841-5.547-12.39-12.396-12.39
				c-6.84,0-12.386,5.549-12.386,12.39c0,2.934,1.021,5.629,2.725,7.748c-6.773,0.079-12.238,5.595-12.238,12.389
				c0,2.587,0.794,4.989,2.152,6.976c-6.597,1.82-11.443,7.862-11.443,15.039c0,8.61,6.983,15.598,15.599,15.598
				c4.552,0,8.649-1.953,11.497-5.065c3.262,4.473,8.537,7.388,14.5,7.388c9.899,0,17.92-8.025,17.92-17.92
				C384.815,322.05,381.706,316.618,376.976,313.394z"/>
			<path style="fill:#1D2953;" d="M367.631,309.578c-0.289-0.26-0.735-0.235-0.993,0.056c-6.127,6.855-9.121,10.292-10.582,12.063
				V301.41c0-0.389-0.316-0.702-0.703-0.702c-0.392,0-0.705,0.314-0.705,0.702v29.592c-3.047-4.834-6.355-9.243-6.391-9.297
				c-0.236-0.31-0.675-0.373-0.984-0.138c-0.31,0.232-0.374,0.673-0.141,0.983c0.041,0.053,4.159,5.54,7.404,10.949
				c0.033,0.05,0.07,0.102,0.111,0.143v40.714c0,0.387,0.314,0.705,0.705,0.705c0.387,0,0.703-0.318,0.703-0.705v-50.441
				c0.828-1.165,7.48-8.699,11.633-13.345C367.944,310.282,367.92,309.838,367.631,309.578z"/>
		</g>
		<g>
			<path style="fill:#C4D987;" d="M268.61,313.394c1.451-2.03,2.309-4.514,2.309-7.197c0-6.845-5.548-12.393-12.389-12.393
				c-0.254,0-0.502,0.012-0.75,0.026c1.712-2.127,2.74-4.826,2.74-7.77c0-6.841-5.547-12.39-12.392-12.39
				c-6.841,0-12.39,5.549-12.39,12.39c0,2.934,1.023,5.629,2.725,7.748c-6.773,0.079-12.234,5.595-12.234,12.389
				c0,2.587,0.791,4.989,2.148,6.976c-6.596,1.82-11.441,7.862-11.441,15.039c0,8.61,6.982,15.598,15.6,15.598
				c4.549,0,8.649-1.953,11.496-5.065c3.259,4.473,8.535,7.388,14.498,7.388c9.897,0,17.923-8.025,17.923-17.92
				C276.453,322.05,273.343,316.618,268.61,313.394z"/>
			<path style="fill:#1D2953;" d="M259.266,309.578c-0.289-0.26-0.735-0.235-0.991,0.056c-6.131,6.855-9.121,10.292-10.584,12.063
				V301.41c0-0.389-0.314-0.702-0.703-0.702c-0.388,0-0.703,0.314-0.703,0.702v29.592c-3.045-4.834-6.359-9.243-6.393-9.297
				c-0.233-0.31-0.675-0.373-0.984-0.138c-0.309,0.232-0.377,0.673-0.141,0.983c0.041,0.053,4.159,5.54,7.404,10.949
				c0.031,0.05,0.069,0.102,0.113,0.143v40.714c0,0.387,0.315,0.705,0.703,0.705c0.389,0,0.703-0.318,0.703-0.705v-50.441
				c0.831-1.165,7.48-8.699,11.631-13.345C259.579,310.282,259.554,309.838,259.266,309.578z"/>
		</g>
		<g>
			<path style="fill:#A2C655;" d="M313.427,325.626c1.16-1.626,1.85-3.616,1.85-5.766c0-5.486-4.449-9.935-9.93-9.935
				c-0.203,0-0.403,0.007-0.603,0.019c1.373-1.706,2.199-3.868,2.199-6.229c0-5.484-4.448-9.933-9.938-9.933
				c-5.484,0-9.928,4.448-9.928,9.933c0,2.352,0.817,4.511,2.182,6.212c-5.431,0.065-9.809,4.484-9.809,9.933
				c0,2.068,0.638,3.999,1.727,5.59c-5.289,1.46-9.174,6.302-9.174,12.055c0,6.903,5.598,12.503,12.504,12.503
				c3.646,0,6.934-1.565,9.219-4.061c2.613,3.589,6.842,5.922,11.621,5.922c7.934,0,14.363-6.432,14.363-14.364
				C319.71,332.565,317.22,328.213,313.427,325.626z"/>
			<path style="fill:#1D2953;" d="M305.935,322.57c-0.232-0.208-0.588-0.188-0.793,0.045c-4.914,5.494-7.311,8.249-8.486,9.666
				v-16.26c0-0.311-0.253-0.564-0.563-0.564c-0.313,0-0.563,0.253-0.563,0.564v23.722c-2.442-3.876-5.097-7.411-5.126-7.452
				c-0.188-0.248-0.537-0.299-0.787-0.111c-0.248,0.189-0.301,0.543-0.114,0.788c0.034,0.043,3.334,4.44,5.935,8.776
				c0.024,0.044,0.057,0.082,0.093,0.118v32.633c0,0.312,0.25,0.567,0.563,0.567c0.31,0,0.563-0.255,0.563-0.567v-40.434
				c0.666-0.932,5.997-6.973,9.327-10.695C306.186,323.133,306.165,322.777,305.935,322.57z"/>
		</g>
		<g>
			<path style="fill:#A2C655;" d="M410.011,336.91c0.898-1.257,1.429-2.791,1.429-4.453c0-4.233-3.433-7.666-7.664-7.666
				c-0.159,0-0.313,0.007-0.465,0.016c1.06-1.316,1.695-2.986,1.695-4.807c0-4.231-3.433-7.666-7.665-7.666
				c-4.235,0-7.665,3.435-7.665,7.666c0,1.814,0.631,3.48,1.684,4.793c-4.19,0.049-7.571,3.461-7.571,7.664
				c0,1.599,0.492,3.085,1.332,4.318c-4.079,1.125-7.078,4.86-7.078,9.302c0,5.328,4.32,9.649,9.651,9.649
				c2.814,0,5.351-1.207,7.112-3.135c2.018,2.769,5.281,4.569,8.97,4.569c6.122,0,11.087-4.963,11.087-11.084
				C414.862,342.265,412.939,338.905,410.011,336.91z"/>
			<path style="fill:#1D2953;" d="M404.231,334.55c-0.182-0.161-0.456-0.145-0.617,0.034c-3.791,4.242-5.642,6.368-6.549,7.461
				v-12.548c0-0.243-0.192-0.435-0.432-0.435c-0.24,0-0.436,0.192-0.436,0.435v18.308c-1.883-2.992-3.931-5.721-3.955-5.752
				c-0.147-0.192-0.416-0.232-0.609-0.087c-0.189,0.145-0.23,0.416-0.086,0.609c0.026,0.034,2.574,3.428,4.578,6.772
				c0.022,0.032,0.045,0.064,0.072,0.09v25.186c0,0.244,0.195,0.439,0.436,0.439c0.239,0,0.432-0.194,0.432-0.439v-31.202
				c0.516-0.723,4.631-5.383,7.199-8.259C404.424,334.986,404.407,334.709,404.231,334.55z"/>
		</g>
	</g>
</g>
<g id="Paquete_de_vectores:_motivo_de_puntos_15">
</g>
<g id="Paquete_de_vectores:_motivo_de_puntos_15_1_">
</g>
<g id="Paquete_de_vectores:_motivo_de_puntos_03">
</g>
<g>
	<path style="fill:#89AAD6;" d="M156.337,98.909c0.188-0.84,0.291-1.712,0.291-2.609c0-6.562-5.32-11.884-11.883-11.884
		c-2.602,0-5.002,0.838-6.959,2.254c-2.385-5.34-7.738-9.065-13.965-9.065c-3.65,0-7,1.282-9.631,3.417
		c-3.107-5.825-9.245-9.793-16.312-9.793c-8.263,0-15.258,5.424-17.622,12.909c-2.365-1.995-5.424-3.199-8.764-3.199
		c-6.045,0-11.164,3.937-12.947,9.382c-0.844-0.257-1.737-0.396-2.666-0.396c-4.994,0-9.048,4.01-9.128,8.985H156.337z"/>
	<path style="fill:#89AAD6;" d="M402.581,205.945c0.188-0.841,0.29-1.713,0.29-2.61c0-6.561-5.319-11.884-11.883-11.884
		c-2.6,0-5.002,0.838-6.96,2.255c-2.384-5.341-7.738-9.066-13.963-9.066c-3.651,0-7.001,1.282-9.631,3.417
		c-3.109-5.825-9.246-9.793-16.313-9.793c-8.262,0-15.258,5.424-17.621,12.91c-2.366-1.995-5.425-3.2-8.764-3.2
		c-6.045,0-11.165,3.937-12.947,9.383c-0.844-0.258-1.738-0.396-2.668-0.396c-4.993,0-9.047,4.009-9.127,8.985H402.581z"/>
	<path style="fill:#89AAD6;" d="M253.097,69.548c0.116-0.529,0.178-1.072,0.178-1.634c0-4.105-3.329-7.435-7.433-7.435
		c-1.628,0-3.13,0.522-4.354,1.41c-1.492-3.342-4.84-5.67-8.736-5.67c-2.283,0-4.379,0.802-6.022,2.136
		c-1.947-3.645-5.784-6.127-10.208-6.127c-5.168,0-9.545,3.396-11.024,8.076c-1.479-1.248-3.391-2.002-5.481-2.002
		c-3.779,0-6.982,2.463-8.102,5.87c-0.528-0.162-1.088-0.248-1.668-0.248c-3.124,0-5.662,2.509-5.709,5.623H253.097z"/>
	<path style="fill:#89AAD6;" d="M401.638,85.068c0.106-0.488,0.163-0.989,0.163-1.508c0-3.786-3.069-6.854-6.852-6.854
		c-1.502,0-2.888,0.481-4.016,1.3c-1.377-3.082-4.463-5.229-8.057-5.229c-2.105,0-4.038,0.738-5.554,1.97
		c-1.796-3.362-5.334-5.651-9.413-5.651c-4.767,0-8.802,3.133-10.166,7.448c-1.364-1.151-3.128-1.847-5.055-1.847
		c-3.484,0-6.439,2.272-7.47,5.413c-0.489-0.149-1.005-0.227-1.54-0.227c-2.88,0-5.221,2.314-5.265,5.185H401.638z"/>
	<path style="fill:#89AAD6;" d="M101.536,165.36c0.102-0.449,0.154-0.913,0.154-1.394c0-3.495-2.834-6.333-6.334-6.333
		c-1.385,0-2.665,0.446-3.711,1.2c-1.27-2.847-4.123-4.831-7.443-4.831c-1.945,0-3.73,0.683-5.133,1.82
		c-1.656-3.105-4.93-5.22-8.695-5.22c-4.404,0-8.135,2.893-9.394,6.881c-1.263-1.064-2.892-1.705-4.673-1.705
		c-3.223,0-5.951,2.099-6.902,5.002c-0.449-0.137-0.927-0.212-1.422-0.212c-2.662,0-4.822,2.137-4.863,4.791H101.536z"/>
	<path style="fill:#89AAD6;" d="M278.69,144.381c0.142-0.636,0.217-1.293,0.217-1.974c0-4.957-4.02-8.979-8.978-8.979
		c-1.964,0-3.779,0.634-5.259,1.702c-1.802-4.035-5.847-6.849-10.552-6.849c-2.759,0-5.289,0.968-7.277,2.581
		c-2.348-4.401-6.986-7.399-12.324-7.399c-6.246,0-11.529,4.1-13.314,9.753c-1.791-1.506-4.102-2.416-6.625-2.416
		c-4.566,0-8.436,2.975-9.783,7.089c-0.638-0.192-1.314-0.299-2.014-0.299c-3.773,0-6.838,3.029-6.897,6.79H278.69z"/>
</g>
<g>
	<g>
		<g>
			<g>
				<g>
					<g>
						<g>
							<path style="fill:#1B2A67;" d="M250.163,219.826c-7.848-4.953-12.527-7.865-12.574-7.894l-0.008,0.014v5.036
								c2.113,1.322,5.637,3.533,10.291,6.47c2.002,1.267,2.527,1.783,2.527,6.229v10.065h4.289v-10.065
								C254.688,224.75,254.061,222.289,250.163,219.826z"/>
						</g>
					</g>
					<g>
						<path style="fill:#1B2A67;" d="M263.224,274.038c0,0.945-0.766,1.71-1.713,1.71h-18.129c-0.947,0-1.713-0.765-1.713-1.71
							v-38.896c0-0.944,0.766-1.712,1.713-1.712h18.129c0.947,0,1.713,0.768,1.713,1.712V274.038z"/>
					</g>
				</g>
				<g>
					<g>
						<g>
							<path style="fill:#1B2A67;" d="M57.747,219.826c7.844-4.953,12.525-7.865,12.57-7.894l0.014,0.014v5.036
								c-2.117,1.322-5.643,3.533-10.293,6.47c-2.002,1.267-2.529,1.783-2.529,6.229v10.065h-4.287v-10.065
								C53.222,224.75,53.851,222.289,57.747,219.826z"/>
						</g>
					</g>
					<g>
						<path style="fill:#1B2A67;" d="M44.688,274.038c0,0.945,0.766,1.71,1.707,1.71h18.133c0.945,0,1.711-0.765,1.711-1.71v-38.896
							c0-0.944-0.766-1.712-1.711-1.712H46.396c-0.941,0-1.707,0.768-1.707,1.712V274.038z"/>
					</g>
				</g>
			</g>
		</g>
		<g>
			<g>
				<g>
					<path style="fill:#1B2A67;" d="M75.026,380.037v23.393c0,1.651,1.338,2.988,2.99,2.988h31.65c1.652,0,2.986-1.337,2.986-2.988
						v-23.393H75.026z"/>
				</g>
				<g>
					<path style="fill:#1B2A67;" d="M195.569,380.037v23.393c0,1.651,1.338,2.988,2.99,2.988h31.65c1.65,0,2.988-1.337,2.988-2.988
						v-23.393H195.569z"/>
				</g>
			</g>
		</g>
		<g>
			<path style="fill:#354B99;" d="M238.804,373.98c0,5.411-4.383,9.798-9.797,9.798H79.216c-5.41,0-9.795-4.387-9.795-9.798V203.319
				c0-5.41,4.385-9.798,9.795-9.798h149.791c5.414,0,9.797,4.388,9.797,9.798V373.98z"/>
		</g>
		<g>
			<g>
				<path style="fill:#1B2A67;" d="M247.605,378.919c0,3.358-2.725,6.083-6.084,6.083H66.706c-3.363,0-6.086-2.725-6.086-6.083
					v-12.171c0-3.36,2.723-6.081,6.086-6.081H241.52c3.359,0,6.084,2.721,6.084,6.081V378.919z"/>
			</g>
		</g>
		<g>
			<g>
				<path style="fill:#FFFFFF;" d="M109.962,349.638c0,1.053-0.854,1.904-1.904,1.904H80.747c-1.053,0-1.904-0.852-1.904-1.904
					v-10.244c0-1.052,0.852-1.902,1.904-1.902h27.311c1.051,0,1.904,0.851,1.904,1.902V349.638z"/>
			</g>
			<g>
				<g>
					<g>
						<path style="fill:#E7664F;" d="M88.083,337.491h-7.336c-1.053,0-1.904,0.851-1.904,1.902v10.244
							c0,1.053,0.852,1.904,1.904,1.904h7.336V337.491z"/>
					</g>
				</g>
			</g>
			<g>
				<path style="fill:#FFFFFF;" d="M229.382,349.638c0,1.053-0.852,1.904-1.902,1.904h-27.315c-1.051,0-1.9-0.852-1.9-1.904v-10.244
					c0-1.052,0.85-1.902,1.9-1.902h27.315c1.051,0,1.902,0.851,1.902,1.902V349.638z"/>
			</g>
			<g>
				<g>
					<path style="fill:#E7664F;" d="M220.142,337.491h7.338c1.051,0,1.902,0.851,1.902,1.902v10.244
						c0,1.053-0.852,1.904-1.902,1.904h-7.338V337.491z"/>
				</g>
			</g>
		</g>
		<g>
			<g>
				<g>
					<rect x="71.56" y="226.021" style="fill:#FFFFFF;" width="165.105" height="90.901"/>
				</g>
			</g>
			<g>
				<g>
					<path style="fill:#1B2A67;" d="M234.528,228.158v86.627H73.7v-86.627H234.528 M238.804,223.882H69.421v95.18h169.383V223.882
						L238.804,223.882z"/>
				</g>
			</g>
		</g>
		<g>
			<line style="fill:#354B99;" x1="154.114" y1="223.882" x2="154.114" y2="319.062"/>
			<rect x="151.976" y="223.882" style="fill:#1B2A67;" width="4.277" height="95.18"/>
		</g>
		<g>
			<rect x="109.731" y="201.423" style="fill:#FFFFFF;" width="88.766" height="15.506"/>
			<path style="fill:#FFFFFF;" d="M199.563,217.999h-90.902v-17.648h90.902V217.999z"/>
		</g>
		<g>
			<g>
				<rect x="117.101" y="332.204" style="fill:#1B2A67;" width="74.023" height="2.304"/>
			</g>
			<g>
				<rect x="117.101" y="336.666" style="fill:#1B2A67;" width="74.023" height="2.306"/>
			</g>
			<g>
				<rect x="117.101" y="341.133" style="fill:#1B2A67;" width="74.023" height="2.303"/>
			</g>
			<g>
				<rect x="117.101" y="345.594" style="fill:#1B2A67;" width="74.023" height="2.305"/>
			</g>
			<g>
				<rect x="117.101" y="350.061" style="fill:#1B2A67;" width="74.023" height="2.301"/>
			</g>
			<g>
				<rect x="117.101" y="354.523" style="fill:#1B2A67;" width="74.023" height="2.302"/>
			</g>
		</g>
	</g>
	<g>
		<g>
			<g>
				<g>
					<g>
						<path style="fill:#FAD7B4;" d="M370.247,348.054c-3.021-7.39-10.744-14.036-17.676-16.754c0,0-3.076,9.07-2.16,14.596
							l9.943,60.177c0.918,5.522,6.133,9.265,11.654,8.354l0,0c5.525-0.922,9.262-6.136,8.348-11.66
							C380.356,402.766,375.526,360.923,370.247,348.054z"/>
					</g>
					<g>
						<path style="fill:#FAD7B4;" d="M380.12,425.686l0.389-20.224c-0.066-5.595-4.66-10.08-10.254-10.013
							c-5.609,0.066-10.088,4.658-10.025,10.255l0.783,19.982H380.12z"/>
					</g>
				</g>
			</g>
		</g>
		<g>
			<path style="fill:#FBE4CB;" d="M297.31,357.181c4.813,2.862,9.883-4.064,12.754-8.876c0,0,6.936-14.478,2.121-17.338
				l-52.607-25.038c-4.807-2.856-11.033-1.277-13.891,3.535l0,0c-2.857,4.815-1.277,11.034,3.533,13.898L297.31,357.181z"/>
			<g>
				<path style="fill:#F1A167;" d="M194.581,272.793c0.018-3.116-3.668-6.051-6.096-7.785c-3.877-2.766-10.971-6.363-12.223-4.055
					c-1.24,2.336,4.705,5.035,8.105,7.661c1.947,1.506,1.623,5.486-1.285,4.116c-2.258-1.063-3.029-0.418-3.129,0.223
					c-0.146,0.978,6.699,5.327,9.27,4.833C191.069,277.426,194.554,276.867,194.581,272.793z"/>
				<path style="fill:#FBE4CB;" d="M259.753,306.75c4.611,3.178,5.77,9.492,2.592,14.101l0,0c-3.178,4.611-9.486,5.772-14.1,2.593
					l-58.529-42.74c-2.895-1.994,5.809-15.447,7.914-13.994L259.753,306.75z"/>
			</g>
		</g>
		<g>
			<g>
				<path style="fill:#F1A167;" d="M325.075,316.581h12.506v13.076c0,1.855-0.773,3.98-6.721,3.98c-3.754,0-5.406-1.782-5.785-3.345
					V316.581z"/>
				<g>
					<path style="fill:#F1A167;" d="M311.268,304.709c0,1.434,1.166,2.605,2.605,2.605c1.457,0,2.611-1.172,2.611-2.605
						c0-1.445-1.154-2.614-2.611-2.614C312.435,302.095,311.268,303.264,311.268,304.709z"/>
					<path style="fill:#F1A167;" d="M345.665,304.709c0,1.434,1.18,2.605,2.611,2.605c1.445,0,2.613-1.172,2.613-2.605
						c0-1.445-1.168-2.614-2.613-2.614C346.845,302.095,345.665,303.264,345.665,304.709z"/>
				</g>
				<path style="fill:#F1A167;" d="M314.237,306.883c0,9.698,8.31,16.339,16.84,16.339c8.217,0,16.85-6.876,16.85-16.714v-8.793
					c0-9.246-7.543-16.748-16.85-16.748l0,0c-9.307,0-16.84,7.502-16.84,16.748V306.883z"/>
				<g>
					<g>
						<g>
							<g>
								<g>
									<path style="fill:#1B2A67;" d="M321.878,302.497c0.336,0,0.648,0.113,0.85,0.358c0.172,0.208,0.275,0.48,0.275,0.781
										c0,0.559-0.393,1.142-1.125,1.142c-0.328,0-0.631-0.143-0.838-0.376c-0.178-0.207-0.279-0.484-0.279-0.766
										C320.761,303.055,321.146,302.497,321.878,302.497z"/>
								</g>
							</g>
							<g>
								<g>
									<path style="fill:#1B2A67;" d="M340.866,302.497c0.334,0,0.641,0.113,0.844,0.358c0.182,0.208,0.283,0.48,0.283,0.781
										c0,0.559-0.391,1.142-1.127,1.142c-0.34,0-0.627-0.143-0.842-0.376c-0.176-0.207-0.272-0.484-0.272-0.766
										C339.753,303.055,340.132,302.497,340.866,302.497z"/>
								</g>
							</g>
						</g>
					</g>
					<path style="fill:#FFFFFF;" d="M337.581,311.593c-0.068,2.355-2.646,5.019-6.174,4.988c-3.521,0.03-6.086-2.633-6.152-4.988
						C328.802,314.549,334.03,314.549,337.581,311.593z"/>
					<g>
						<g>
							<g>
								<path style="fill:#1B2A67;" d="M329.491,310.429c0.123,0,0.24-0.015,0.352-0.022c0.193-0.029,0.354-0.203,0.332-0.394
									c-0.02-0.201-0.18-0.367-0.393-0.333c-0.723,0.067-1.301-0.148-1.367-0.305c-0.016-0.073,0.051-0.324,0.656-0.734
									c1.832-1.234,2.037-5.555,2.053-5.738c0-0.206-0.152-0.371-0.353-0.376c-0.215-0.015-0.367,0.141-0.373,0.343
									c-0.051,1.148-0.467,4.308-1.74,5.171c-0.795,0.542-1.105,1.064-0.916,1.581
									C327.94,310.186,328.726,310.429,329.491,310.429z"/>
							</g>
						</g>
					</g>
					<g>
						<g>
							<path style="fill:#EB7F5D;" d="M317.702,309.037c0,1.418,1.756,2.556,3.914,2.556c2.17,0,3.908-1.138,3.908-2.556
								c0-1.425-1.738-2.562-3.908-2.562C319.458,306.476,317.702,307.612,317.702,309.037z"/>
						</g>
						<g>
							<path style="fill:#EB7F5D;" d="M336.626,309.037c0,1.418,1.76,2.556,3.924,2.556c2.15,0,3.908-1.138,3.908-2.556
								c0-1.425-1.758-2.562-3.908-2.562C338.386,306.476,336.626,307.612,336.626,309.037z"/>
						</g>
					</g>
				</g>
			</g>
			<path style="fill:#1B2A67;" d="M344.206,285.711c0,0-8.205-10.436-22.971-5.246c-13.314,4.696-7.56,23.762-7.56,23.762
				s4.977-1.705,12.885-9.811c0.838-0.883-0.789,7.357,0.988,7.357c9.863,0,9.25-8.658,9.719-8.658c3.383,0,7.113,2.31,7.91,5.718
				c0.445,1.863,1.967,7.633,1.967,7.633s1.965,0.457,2.949-7.023C351.075,291.97,351.196,283.015,344.206,285.711z"/>
		</g>
		<g>
			<path style="fill:#FBE4CB;" d="M365.374,425.686v-77.514c0-13.863-13.359-19.33-27.693-22.287l-5.787,8.095l-7.574-7.977
				c-13.324,0.747-29.393,9.382-29.393,23.441v76.242H365.374z"/>
			<g>
				<path style="fill:#F8CFAA;" d="M334.011,425.686v-92.19c-1.772-0.077-3.551-0.115-5.301-0.111v92.301H334.011z"/>
				<g>
					<path style="fill:#FFFFFF;" d="M332.571,353.026c0,0.668-0.539,1.208-1.211,1.208c-0.666,0-1.209-0.54-1.209-1.208
						s0.543-1.21,1.209-1.21C332.032,351.816,332.571,352.358,332.571,353.026z"/>
					<path style="fill:#FFFFFF;" d="M332.571,364.148c0,0.67-0.539,1.21-1.211,1.21c-0.666,0-1.209-0.54-1.209-1.21
						c0-0.668,0.543-1.211,1.209-1.211C332.032,362.938,332.571,363.48,332.571,364.148z"/>
					<path style="fill:#FFFFFF;" d="M332.571,375.272c0,0.669-0.539,1.209-1.211,1.209c-0.666,0-1.209-0.54-1.209-1.209
						c0-0.668,0.543-1.21,1.209-1.21C332.032,374.062,332.571,374.603,332.571,375.272z"/>
					<path style="fill:#FFFFFF;" d="M332.571,386.394c0,0.668-0.539,1.211-1.211,1.211c-0.666,0-1.209-0.543-1.209-1.211
						c0-0.669,0.543-1.212,1.209-1.212C332.032,385.182,332.571,385.725,332.571,386.394z"/>
					<path style="fill:#FFFFFF;" d="M332.571,397.516c0,0.67-0.539,1.21-1.211,1.21c-0.666,0-1.209-0.54-1.209-1.21
						c0-0.669,0.543-1.211,1.209-1.211C332.032,396.305,332.571,396.847,332.571,397.516z"/>
					<path style="fill:#FFFFFF;" d="M332.571,408.639c0,0.669-0.539,1.211-1.211,1.211c-0.666,0-1.209-0.542-1.209-1.211
						c0-0.67,0.543-1.21,1.209-1.21C332.032,407.429,332.571,407.969,332.571,408.639z"/>
					<path style="fill:#FFFFFF;" d="M332.571,419.761c0,0.669-0.539,1.209-1.211,1.209c-0.666,0-1.209-0.54-1.209-1.209
						c0-0.667,0.543-1.21,1.209-1.21C332.032,418.551,332.571,419.094,332.571,419.761z"/>
				</g>
				<g>
					<polygon style="fill:#354B99;" points="339.093,425.686 334.768,338.328 328.657,338.328 324.333,425.686 					"/>
					<polygon style="fill:#A4A3A8;" points="328.657,338.328 328.431,341.603 331.716,344.936 334.999,341.603 334.768,338.328 
											"/>
					<polygon style="fill:#354B99;" points="331.716,343.405 326.714,338.328 331.716,333.25 336.716,338.328 					"/>
				</g>
				<g>
					<g>
						<g>
							<g>
								<polygon style="fill:#F8CFAA;" points="341.876,326.781 334.298,335.874 331.622,333.323 337.681,325.885 								"/>
							</g>
						</g>
					</g>
					<g>
						<g>
							<g>
								<polygon style="fill:#F8CFAA;" points="320.786,326.279 329.022,335.983 331.747,333.323 325.04,325.885 								"/>
							</g>
						</g>
					</g>
				</g>
			</g>
		</g>
	</g>
</g>
</svg>
